<?xml version="1.0" encoding="iso-8859-1"?>
<!-- Generator: Adobe Illustrator 19.0.0, SVG Export Plug-In . SVG Version: 6.00 Build 0)  -->
<svg version="1.1" id="Layer_1" xmlns="http://www.w3.org/2000/svg" xmlns:xlink="http://www.w3.org/1999/xlink" x="0px" y="0px"
	 viewBox="0 0 512 512" style="enable-background:new 0 0 512 512;" xml:space="preserve">
<g>
	<g>
		<g>
			<path d="M501.744,139.718h-29.922v-34.024c0-5.664-4.591-10.256-10.256-10.256h-27.751V64.611
				c0-5.664-4.591-10.256-10.256-10.256H10.256C4.591,54.355,0,58.947,0,64.611v295.364c0,5.664,4.591,10.256,10.256,10.256h30.828
				v31.853c0,5.664,4.591,10.256,10.256,10.256h30.948v35.05c0,5.664,4.591,10.256,10.256,10.256h409.202
				c5.664,0,10.256-4.591,10.256-10.256V149.974C512,144.31,507.409,139.718,501.744,139.718z M82.287,149.974v241.854H61.595
				V115.95h151.052c5.664,0,10.256-4.591,10.256-10.256c0-5.664-4.591-10.256-10.256-10.256H51.339
				c-5.664,0-10.256,4.591-10.256,10.256v244.025H20.511V74.867h392.793v20.572H322.04c-5.664,0-10.256,4.591-10.256,10.256
				c0,5.664,4.591,10.256,10.256,10.256h129.271v23.769H92.542C86.878,139.718,82.287,144.31,82.287,149.974z M491.489,437.133
				H102.798V160.23h388.691V437.133z"/>
			<path d="M237.496,353.522c5.664,0,10.256-4.591,10.256-10.256v-28.785h10.252c19.476,0,35.321-15.844,35.321-35.321
				c0-19.477-15.845-35.321-35.321-35.321h-20.507c-5.664,0-10.256,4.591-10.256,10.256v89.169
				C227.24,348.93,231.832,353.522,237.496,353.522z M247.752,264.353L247.752,264.353h10.252c8.166,0,14.809,6.644,14.809,14.809
				s-6.644,14.809-14.809,14.809h-10.252V264.353z"/>
			<path d="M324.091,353.522c5.664,0,10.256-4.591,10.256-10.256v-28.785h10.252c19.476,0,35.321-15.844,35.321-35.321
				c0-19.477-15.845-35.321-35.321-35.321h-20.507c-5.664,0-10.256,4.591-10.256,10.256v89.169
				C313.835,348.93,318.427,353.522,324.091,353.522z M334.347,264.353h10.252c8.166,0,14.809,6.644,14.809,14.809
				s-6.644,14.809-14.809,14.809h-10.252V264.353z"/>
			<path d="M127.308,352.891c5.313,1.956,11.209-0.767,13.166-6.083l7.647-20.781h31.081l7.647,20.781
				c1.526,4.147,5.45,6.717,9.626,6.716c1.175,0,2.372-0.204,3.54-0.634c5.315-1.956,8.039-7.851,6.084-13.166l-32.812-89.169
				c-1.484-4.034-5.327-6.714-9.625-6.714s-8.141,2.681-9.625,6.714l-32.812,89.169C119.269,345.04,121.992,350.935,127.308,352.891
				z M163.662,283.794l7.992,21.721h-15.986L163.662,283.794z"/>
			<path d="M435.92,333.011h-25.234c-5.664,0-10.256,4.591-10.256,10.256s4.591,10.256,10.256,10.256h25.234
				c16.87,0,30.594-13.724,30.594-30.594v-4.558c0-13.615-8.761-25.391-21.803-29.304l-16.584-4.975
				c-4.297-1.289-7.185-5.17-7.185-9.657c0-5.56,4.523-10.082,10.082-10.082h25.234c5.664,0,10.256-4.591,10.256-10.256
				c0-5.664-4.591-10.256-10.256-10.256h-25.234c-16.87,0-30.594,13.724-30.594,30.594c0,13.615,8.761,25.391,21.803,29.304
				l16.584,4.976c4.298,1.289,7.185,5.17,7.185,9.657v4.558C446.003,328.488,441.48,333.011,435.92,333.011z"/>
			<path d="M271.446,95.438h-2.959c-5.664,0-10.256,4.591-10.256,10.256c0,5.664,4.591,10.256,10.256,10.256h2.959
				c5.664,0,10.256-4.591,10.256-10.256C281.701,100.03,277.11,95.438,271.446,95.438z"/>
		</g>
	</g>
</g>
<g>
</g>
<g>
</g>
<g>
</g>
<g>
</g>
<g>
</g>
<g>
</g>
<g>
</g>
<g>
</g>
<g>
</g>
<g>
</g>
<g>
</g>
<g>
</g>
<g>
</g>
<g>
</g>
<g>
</g>
</svg>
